<svg class="h-8" width="180" height="92" viewBox="0 0 447 184" fill="none" xmlns="http://www.w3.org/2000/svg">
<path d="M5.159 100.754C8.4735 100.584 11.8124 100.657 15.1513 100.632L17.6615 100.535C17.8808 101.997 16.1992 102.582 16.053 103.874C9.30213 102.753 9.3265 102.801 4.47661 105.117C3.57487 105.555 2.62439 105.848 2.6975 106.896C2.77061 108.261 3.84295 108.651 5.08589 108.772C6.37757 108.894 8.2298 108.675 8.71722 109.845C10.082 113.086 13.5671 113.72 15.7118 116.059C18.807 119.423 22.8282 119.74 25.0948 116.937C27.0688 114.524 29.6766 112.769 31.3338 110.113C33.2348 109.041 34.6727 109.309 36.135 111.088C37.8166 113.135 38.6452 115.596 40.1562 117.717C41.8622 121.543 43.5682 125.369 45.2499 129.171C45.3961 129.902 45.8348 130.755 45.6154 131.389C42.7396 140.211 45.0793 148.936 45.7129 157.734C45.9566 160.976 47.3214 162.097 50.2947 161.926C51.2452 161.878 52.1713 161.853 53.1218 161.829C55.7783 161.78 56.7044 160.44 56.5582 157.832C56.3876 154.469 54.7059 151.788 53.4386 148.863C50.709 142.575 50.4897 135.362 59.9701 133.119C61.9198 132.656 64.162 132.461 65.21 130.268C68.1589 129.196 70.0842 126.734 72.4239 124.858C73.0332 124.394 73.6668 123.931 74.2761 123.468C75.0073 123.395 75.3972 123.03 75.3972 122.274C76.5427 121.519 77.6881 120.788 78.8336 120.032C80.3446 120.032 81.8312 120.032 83.3423 120.032C85.6819 120.178 87.0955 119.666 85.5113 117.01C85.9987 116.596 86.5105 116.181 86.998 115.767C90.215 116.084 92.9202 115.499 94.4312 112.136C95.796 109.065 98.6475 108.724 101.596 108.846C103.79 110.625 106.617 109.504 109.103 110.576C115.22 113.208 121.557 112.964 127.771 110.552C128.917 110.795 130.062 111.258 131.183 110.503C135.911 110.088 139.494 106.896 143.783 105.385C144.88 105.19 146.025 105.141 147.025 104.751C148.097 104.361 149.047 103.459 148.877 102.241C148.682 100.706 147.22 100.974 146.196 101.047C144.197 101.193 142.102 100.608 140.225 101.705C139.494 101.534 138.763 101.364 138.056 101.217C137.617 100.657 137.179 100.121 136.74 99.5601C137.081 97.0742 135.789 95.8313 133.523 95.2951C132.597 94.7346 131.744 94.7346 130.988 95.5876C129.55 95.9044 128.088 96.2212 126.65 96.538C124.871 95.4657 125.212 93.6378 125.139 92.0293C124.993 89.1779 123.945 87.8131 120.898 88.8854C119.046 89.5435 117.584 89.2023 117.194 86.9601C117.511 84.2061 115.317 83.4506 113.49 82.7439C109.2 81.0622 104.813 79.6487 100.451 78.1133C98.3063 77.4065 96.5028 78.4545 94.5774 79.1125C90.1419 80.6236 90.1175 80.5748 88.6796 75.7249C89.2158 73.5802 87.7535 73.0928 86.1937 72.7029C81.3926 70.2414 75.8603 70.8994 70.8885 69.0959C69.2556 68.706 68.5976 69.5346 68.5001 71.0456C66.7454 72.2886 65.405 74.4089 62.6754 73.1903C58.8491 71.4599 55.2908 72.5566 52.0738 74.8232C50.0266 76.2855 49.1493 75.5299 47.5408 73.8483C42.0085 68.1211 32.3087 71.2162 30.2615 79.1125C29.4085 80.4042 28.458 79.8437 27.3369 79.4781C23.7543 78.3083 20.123 78.3083 17.2716 80.9891C15.0781 83.0363 13.2015 82.9388 10.74 81.6715C8.40039 80.5017 5.81703 79.7218 3.11181 79.8924C1.06462 80.0143 -0.519516 81.3059 1.08899 83.1582C3.98918 86.497 3.28242 89.3729 1.01588 92.468C0.845282 92.8336 0.869646 93.1992 1.11336 93.516L1.30833 93.7353C-0.885086 94.4177 0.309113 95.9287 0.455341 97.1961C0.991511 99.7307 2.40505 100.949 5.11027 100.827L5.159 100.754ZM76.2258 101.632C75.0073 102.582 73.3988 103.654 71.9121 101.753L75.4947 99.3407C76.3233 99.95 77.0301 100.998 76.2258 101.632ZM68.4757 101.583C66.5504 101.948 63.8696 101.68 65.405 105.092C65.5268 106.408 64.5763 107.237 63.967 108.236C63.3821 108.236 62.7972 108.236 62.2367 108.236C62.1879 107.895 62.0661 107.627 61.8224 107.383C61.5299 105.799 62.1636 104.459 62.9434 103.118C64.1133 101.095 64.4788 98.9021 64.1133 96.5868C65.8924 96.4405 67.111 97.6835 68.5245 98.439C68.5245 99.487 68.5001 100.535 68.4757 101.559V101.583ZM55.2909 112.842C54.121 113.403 53.0243 114.012 52.5369 115.304L52.0495 115.353L51.5864 115.231C51.2208 113.232 52.3175 111.551 52.7562 109.723C55.827 108.529 56.7288 105.799 57.1187 102.996C57.3868 101.095 58.1179 99.3895 58.4347 97.5616C59.1659 97.4154 59.897 97.2692 60.6282 97.1229C62.0417 97.6347 62.0661 98.8777 61.5543 99.8282C60.2382 102.241 60.4088 104.751 60.5307 107.31C60.3601 107.627 60.287 107.968 60.3113 108.309C57.2162 108.212 56.0951 110.332 55.3152 112.818L55.2909 112.842ZM44.2506 103.849C46.444 102.143 48.7106 100.535 50.3678 98.244C53.8042 101.339 52.6587 104.849 51.2939 108.383C49.9291 108.821 48.8812 110.917 47.1021 109.236C47.0533 107.749 45.9566 106.945 45.0061 106.067C44.7624 105.336 44.5187 104.605 44.275 103.849H44.2506ZM30.9926 106.798C28.7017 105.58 26.4352 104.215 23.9006 106.384C21.9996 107.993 22.2921 104.995 21.1222 104.995C21.1222 101.437 23.2913 104.532 24.2661 103.971C25.3872 104.386 26.5327 104.264 27.6538 103.971C28.6042 104.118 29.4816 104.093 29.969 103.07C30.7245 103.362 31.4557 103.679 32.2112 103.971C33.6491 105.702 33.2104 106.628 31.017 106.798H30.9926ZM49.0274 134.679C47.5651 132.998 48.4181 130.658 47.4433 128.879C47.5164 125.028 46.0054 121.762 43.9094 118.667C43.8363 118.082 43.7388 117.522 43.0321 117.376L43.0808 116.937C40.7899 112.867 38.4746 108.797 37.9141 104.02C37.4998 104.386 37.0611 104.434 36.598 104.069C36.6711 103.581 36.7199 103.094 36.793 102.606C37.3779 102.85 37.9385 103.143 37.9872 103.874C39.4738 103.947 40.9361 104.044 42.4228 104.118C43.0321 104.971 43.6657 105.848 44.275 106.701C44.4456 108.821 45.4692 110.503 46.9315 111.965C47.3945 113.5 47.8332 115.036 48.2963 116.571C47.4514 119.155 48.5156 120.739 51.4889 121.324C51.4158 121.714 51.5377 122.03 51.8545 122.25C51.6595 123.858 52.61 125.15 53.0243 126.588C54.1941 130.877 53.7554 131.901 49.0762 134.63L49.0274 134.679ZM63.7477 128.781C56.0951 129.512 56.0707 129.464 59.2634 122.177C62.5291 121.177 64.9175 123.541 67.6959 124.419C68.1102 127.441 65.1125 127.368 63.7477 128.806V128.781ZM77.7125 113.208C77.3469 113.159 76.9813 113.135 76.5914 113.086L72.7895 112.477C72.302 110.844 71.181 110.576 69.7187 111.063C69.0119 110.576 68.3051 110.088 67.6227 109.601C66.4285 108.431 66.0873 107.237 67.5009 105.97C68.4026 106.043 69.4506 105.872 69.9868 106.823C71.2297 109.065 73.2038 109.601 75.5678 109.723C77.6637 109.82 79.6622 110.454 79.9546 113.086L77.7125 113.208ZM122.02 110.405C120.557 110.357 119.071 110.015 117.608 109.772C116.195 109.552 114.367 109.869 114.026 107.871C113.733 106.116 114.952 105.165 116.439 104.556C117.755 104.8 119.071 105.044 120.387 105.287C120.923 106.701 121.751 107.919 123.068 108.748C122.994 109.504 122.921 110.454 122.02 110.43V110.405ZM102.449 100.486C101.84 103.24 104.253 103.484 105.74 103.971C107.616 104.581 109.712 104.459 111.711 104.654C111.077 107.554 109.541 108.772 106.471 107.749C105.276 107.359 103.887 107.53 102.596 107.432C102.791 104.922 102.498 103.021 99.1105 103.971C97.9407 104.288 96.6246 104.02 95.3573 104.02C95.2842 102.509 96.7221 101.9 97.1121 100.706C97.8676 100.584 98.6475 100.486 99.403 100.364C100.427 101.071 101.426 101.729 102.059 99.95C102.254 100.072 102.376 100.267 102.449 100.511V100.486Z" fill="#626B21"/>
<path d="M164.073 182.742C164.073 182.912 164.073 183.083 164.073 183.253H446.927C446.878 183.083 446.805 182.912 446.756 182.742H164.073Z" fill="#626B21"/>
<path d="M415.342 72.2664C413.562 74.801 413.367 77.5062 412.222 79.8215C410.297 81.1863 409.931 83.3309 409.492 85.4269C408.566 86.4992 408.054 87.7422 407.957 89.1557C405.349 95.6141 401.791 101.683 399.914 108.433C398.647 109.676 398.525 111.382 398.111 112.991C397.258 113.576 397.404 114.331 398.111 114.672C398.452 114.819 398.818 113.966 398.745 113.381C400.207 112.089 401.011 110.456 401.182 108.507C402.376 107.264 403.424 105.777 405.495 105.972C408.347 106.849 411.247 107.605 414.025 108.677C417.389 109.944 420.581 109.993 423.701 108.068C424.871 108.287 426.577 106.362 427.21 109.116C427.527 110.529 428.77 111.699 429.282 113.088C430.184 115.647 432.353 115.452 433.937 114.794C435.911 113.99 434.619 112.138 434.034 110.895C429.623 101.366 425.383 91.7634 420.533 82.4536C418.851 79.2366 418.071 75.4346 415.366 72.3395L415.342 72.2664ZM425.456 103.998C426.625 105.996 424.944 106.094 423.677 106.386C420.533 105.753 417.34 105.29 414.245 104.437C411.174 103.608 408.298 103.51 405.495 105.168C404.009 105.046 403.058 104.973 404.009 102.877C406.056 98.3437 407.713 93.6644 409.541 89.0338C410.37 88.2783 410.126 87.2304 410.297 86.2799C411.466 84.9638 412.393 83.5259 412.563 81.7224C413.879 80.6257 414.513 81.4543 415.049 82.5998C417.242 87.206 419.533 91.7634 421.581 96.4184C422.726 99.0261 424.018 101.512 425.456 103.973V103.998Z" fill="#626B21"/>
<path d="M254.929 108.433C255.319 109.286 255.782 110.115 256.124 110.992C257.131 113.689 259.519 114.843 263.289 114.453C256.709 100.391 250.201 86.4748 243.475 72.047C241.72 75.0203 240.014 77.0919 240.502 79.992C237.723 83.0385 235.774 86.4505 235.969 90.7398C234.701 91.3247 234.506 92.3483 234.799 93.5913C233.458 93.8593 233.044 94.5905 233.678 95.8822C231.85 95.9309 232.459 97.1982 232.532 98.1731C230.826 99.1723 230.924 101.146 230.217 102.657C228.511 104.631 228.024 107.02 227.829 109.506C226.025 110.822 225.075 112.479 225.391 115.233C228.267 113.893 228.438 111.577 229.023 109.506C229.754 107.19 231.436 106.142 233.751 105.948C235.359 106.435 237.041 106.727 238.528 107.41C243.134 109.506 247.764 110.091 252.565 108.165C253.37 108.238 254.15 108.312 254.954 108.385C254.954 107.873 254.783 107.58 254.564 107.434C254.808 107.605 254.954 107.873 254.954 108.385L254.929 108.433ZM241.915 104.412C238.966 103.608 236.359 103.681 233.726 105.119C232.045 105.192 231.362 104.363 231.606 102.731C232.971 101.439 232.947 99.8547 232.605 98.1974C234.141 98.0025 234.506 97.2226 233.702 95.8822C235.457 95.8334 235.481 94.8829 234.896 93.64C236.895 93.3232 236.261 91.9584 236.042 90.7398C239.064 87.8152 240.307 84.1352 240.526 80.0408C242.329 80.5282 243.207 81.9661 243.841 83.5259C246.131 89.0338 248.203 94.6148 251.249 99.7816C252.37 101.683 253.321 103.803 253.053 106.167C249.202 106.557 245.522 105.436 241.915 104.436V104.412Z" fill="#626B21"/>
<path d="M239.064 165.292C244.304 165.292 249.568 165.292 254.808 165.292C254.735 164.902 254.686 164.512 254.613 164.122C251.615 164.122 248.642 164.122 245.644 164.122C240.502 164.122 240.477 164.122 240.477 158.882C240.477 151.693 240.477 144.503 240.477 137.338C240.477 135.9 240.916 134.023 238.698 133.828C236.31 133.609 236.675 135.534 236.675 136.972C236.627 145.478 236.675 153.983 236.578 162.489C236.578 164.39 237.138 165.316 239.088 165.316L239.064 165.292Z" fill="#626B21"/>
<path d="M262.095 165.316C263.898 165.438 264.264 164.317 264.264 162.781C264.264 153.886 264.264 145.015 264.264 136.119C264.264 134.901 263.923 133.804 262.485 133.706C260.633 133.56 260.34 134.828 260.364 136.29C260.364 140.823 260.364 145.356 260.364 149.889C260.364 154.057 260.364 158.2 260.364 162.367C260.364 163.683 260.194 165.145 262.119 165.292L262.095 165.316Z" fill="#626B21"/>
<path d="M447 45H164.128C164.128 45.3333 164.064 45.6667 164 46H447C447 45.6667 447 45.3333 447 45Z" fill="#626B21"/>
<path d="M352.902 162.05C354.608 163.634 356.509 164.804 358.873 165.072C361.115 165.535 363.358 165.779 365.649 165.218C368.232 165.56 370.06 164.146 371.863 162.635C373.984 161.953 374.715 160.393 374.617 158.297C374.544 156.42 374.52 154.544 374.544 152.667C374.544 151.278 374.568 149.889 372.716 149.865C370.742 149.865 370.303 151.156 370.352 152.887C370.425 155.884 370.352 158.882 370.352 161.88C369.036 163.147 366.843 162.489 365.697 164.097C363.406 164.171 361.164 164 358.922 163.464C357.801 162.489 356.582 161.758 355.071 161.636C354.462 160.685 353.828 159.759 353.268 158.784C348.881 151.254 350.173 142.772 356.607 136.826C357.752 136.387 359.117 136.265 359.726 134.925C358.678 134.145 357.655 134.169 356.607 134.876C354.17 136.265 351.464 137.46 349.807 139.677C344.421 146.818 345.859 157.152 352.975 162.075L352.902 162.05Z" fill="#626B21"/>
<path d="M306.183 133.828C303.892 133.707 304.16 135.583 304.16 137.07C304.16 145.575 304.16 154.081 304.16 162.587C304.16 163.903 303.965 165.389 306.036 165.267C308.035 165.17 307.791 163.683 307.791 162.392C307.791 158.053 307.791 153.691 307.791 149.353C307.791 145.015 307.791 141.042 307.791 136.875C307.791 135.608 308.084 133.926 306.183 133.828Z" fill="#626B21"/>
<path d="M312.787 164.756C313.347 164.756 313.884 164.756 314.444 164.756V137.947C314.956 138.069 315.663 138.045 315.955 138.361C321.731 144.601 327.361 150.937 333.21 157.079C335.355 159.321 336.866 162.343 340.083 163.44C340.375 164.024 340.692 164.951 341.301 164.731C341.838 164.536 341.74 163.586 341.448 162.952C341.448 161.466 341.448 159.979 341.448 158.492V134.95C341.18 134.95 340.911 134.95 340.643 134.95V158.468C339.571 158.614 338.889 157.98 338.255 157.249C332.065 150.425 325.899 143.601 319.708 136.777C318.831 135.803 317.954 134.657 316.833 134.145C314.322 133 312.738 133.658 313.201 136.826C311.836 146.16 312.519 155.446 312.763 164.731L312.787 164.756Z" fill="#626B21"/>
<path d="M204.14 63.8581L206.041 64.2968C208.161 65.7103 210.939 65.9297 212.67 68.0744C213.108 68.6105 214.108 68.6593 214.595 67.8794C215.058 67.1483 214.644 66.4171 213.986 66.0272C211.938 64.833 209.94 63.4438 207.503 63.0782C206.455 62.7858 205.407 62.4933 204.359 62.2009C197.194 60.4218 191.467 63.8825 185.764 67.3676C176.429 73.8747 172.92 83.014 175.211 93.8592C177.356 103.998 183.375 111.309 193.904 114.063C195.22 115.257 196.804 115.038 198.364 114.94C201.093 115.282 203.847 116.062 206.431 114.38C208.38 114.161 210.501 114.526 212.06 112.845C213.45 112.601 214.79 112.333 215.545 110.919C218.275 110.188 220.663 109.164 220.176 105.216C217.593 105.996 216.569 107.8 215.472 109.506C213.742 109.847 212.012 110.237 210.817 111.699C209.38 112.186 207.917 112.65 206.479 113.137C203.774 113.186 201.069 113.21 198.364 113.259C196.877 112.771 195.39 112.284 193.904 111.797C187.031 108.336 183.522 102.706 182.254 95.1265C180.719 86.036 181.742 77.6767 187.202 70.0728C192.149 66.1003 197.486 63.2245 204.115 63.8337L204.14 63.8581Z" fill="#626B21"/>
<path d="M328.409 113.454C320.732 113.283 314.079 113.137 307.401 113.015C307.474 102.755 307.547 92.4945 307.645 82.2342H323.998C323.998 81.893 323.998 81.5274 323.998 81.1862H307.645C307.377 78.8953 307.328 76.6044 307.693 74.3135H320.586C320.586 73.9479 320.562 73.5824 320.537 73.2412H307.62C301.869 72.8756 301.869 72.8756 301.844 78.0911C301.844 88.8632 301.966 99.6353 301.771 110.407C301.723 113.893 302.868 115.282 306.304 114.77C315.005 115.794 324.29 115.452 328.385 113.503L328.409 113.454Z" fill="#626B21"/>
<path d="M392.335 113.283L372.57 112.869C372.521 109.847 372.448 106.825 372.448 103.803C372.448 94.7123 372.351 85.6462 372.497 76.5556C372.546 73.8992 371.814 72.705 369.036 72.9487C366.38 73.1924 366.891 75.0934 366.891 76.7019C366.891 87.669 366.891 98.6604 366.891 109.628C366.891 114.672 366.916 114.672 372.277 114.697C379.564 115.72 388.801 115.404 392.359 113.283H392.335Z" fill="#626B21"/>
<path d="M293.729 113.186C287.733 113.113 281.738 113.088 275.767 113.04C275.718 110.213 275.645 107.385 275.645 104.558C275.645 95.3216 275.645 86.0605 275.621 76.8238C275.621 75.4102 276.157 73.7286 274.11 73.0706C271.551 72.242 270.088 73.3387 270.088 76.4582C270.04 87.5959 270.04 98.7336 270.064 109.847C270.064 114.746 270.137 114.746 275.621 114.697C284.321 115.891 292.218 115.477 294.703 113.698C294.387 113.527 294.07 113.186 293.753 113.186H293.729Z" fill="#626B21"/>
<path d="M360.677 112.942H340.692C340.644 100.854 340.595 88.7658 340.57 76.6776C340.57 74.7035 340.717 72.9975 337.817 72.9C334.868 72.8269 334.941 74.4842 334.965 76.4826C335.014 87.6203 334.965 98.7824 335.014 109.92C335.014 114.867 335.063 114.867 340.449 114.673C348.662 115.867 356.997 115.452 360.701 112.942H360.677Z" fill="#626B21"/>
<path d="M287.977 157.517C286.661 156.908 286.368 158.468 286.003 159.467C284.589 159.248 284.492 157.956 284.029 157.006C280.519 149.962 276.937 142.943 273.598 135.827C272.647 133.804 271.283 133.097 269.674 134.048C267.846 135.144 269.187 136.729 269.991 137.923C272.842 142.163 274.256 147.135 276.912 151.449C279.569 155.787 280.86 160.929 284.467 165.121C285.296 163.537 285.905 162.392 286.515 161.222C286.856 160.783 287.221 160.344 287.514 159.881C288.001 159.126 289.001 157.956 288.026 157.517H287.977Z" fill="#626B21"/>
<path d="M361.384 134.023C362.821 134.803 364.235 134.559 365.6 134.559C364.454 132.756 362.992 133.39 361.384 134.023Z" fill="#626B21"/>
<path d="M365.698 134.609C365.698 134.609 365.698 134.584 365.698 134.56C365.673 134.56 365.624 134.56 365.6 134.56C365.6 134.56 365.624 134.584 365.649 134.609C365.649 134.609 365.698 134.609 365.722 134.609H365.698Z" fill="#626B21"/>
<path d="M368.744 136.387C369.085 136.704 369.426 137.021 369.767 137.338C370.133 137.728 370.596 138.093 371.034 137.655C371.498 137.191 371.083 136.753 370.693 136.412C370.376 136.07 370.06 135.729 369.743 135.388C368.573 134.145 367.184 134.194 365.697 134.608C366.111 136.192 367.769 135.68 368.719 136.387H368.744Z" fill="#626B21"/>
<path d="M297.287 137.63C297.238 137.411 296.897 137.265 296.702 137.094C296.556 137.752 296.385 138.41 296.239 139.068C294.435 140.092 293.461 141.725 292.9 143.674C292.461 145.137 291.023 146.453 292.291 148.232C293.485 146.989 294.192 145.6 294.435 143.942C295.703 142.626 296.873 141.237 296.385 139.19C297.214 138.971 297.457 138.386 297.311 137.63H297.287Z" fill="#626B21"/>
<path d="M289.001 155.957C289.196 155.324 289.391 154.666 289.585 154.032C290.243 153.886 290.56 153.447 290.585 152.789C290.877 152.326 291.243 151.912 291.413 151.4C291.657 150.766 292.047 149.84 291.194 149.523C290.512 149.28 289.951 150.06 289.732 150.718C289.512 151.376 289.488 152.131 289.366 152.814C289.22 153.082 289.171 153.374 289.22 153.691C288.538 154.057 288.221 154.641 288.391 155.397C288.44 155.616 288.806 155.763 289.001 155.933V155.957Z" fill="#626B21"/>
<path d="M297.409 135.144C297.531 135.266 297.677 135.51 297.774 135.486C298.018 135.437 298.262 135.266 298.505 135.144C298.384 135.022 298.262 134.901 298.091 134.754C297.896 134.876 297.652 134.998 297.433 135.144H297.409Z" fill="#626B21"/>
<path d="M290.634 0.224731C290.634 0.224731 290.585 0.224731 290.561 0.224731C290.561 0.273795 290.561 0.322858 290.561 0.371922C290.585 0.371922 290.61 0.347391 290.634 0.322859C290.634 0.298327 290.634 0.273796 290.634 0.249264V0.224731Z" fill="#626B21"/>
</svg>
